<svg width="99" height="116" viewBox="0 0 99 116" fill="none" xmlns="http://www.w3.org/2000/svg">
<path d="M7.68056 112.352C5.5539 112.352 3.9039 111.905 2.73056 111.01C1.55723 110.101 0.941231 108.81 0.882564 107.138H4.00656C4.10923 108.077 4.43923 108.751 4.99656 109.162C5.56856 109.573 6.41923 109.778 7.54856 109.778C8.44323 109.778 9.17656 109.617 9.74856 109.294C10.3206 108.957 10.6066 108.443 10.6066 107.754C10.6066 107.505 10.5699 107.285 10.4966 107.094C10.4379 106.889 10.3059 106.713 10.1006 106.566C9.89523 106.405 9.71923 106.28 9.57256 106.192C9.4259 106.089 9.15456 105.987 8.75856 105.884C8.36256 105.767 8.0619 105.686 7.85656 105.642C7.65123 105.583 7.2699 105.488 6.71256 105.356C6.0379 105.195 5.48056 105.055 5.04056 104.938C4.61523 104.821 4.13856 104.637 3.61056 104.388C3.09723 104.139 2.68656 103.867 2.37856 103.574C2.08523 103.266 1.8359 102.87 1.63056 102.386C1.42523 101.887 1.32256 101.323 1.32256 100.692C1.32256 99.1813 1.87256 98.0227 2.97256 97.216C4.08723 96.3947 5.54656 95.984 7.35056 95.984C9.1399 95.984 10.5699 96.4093 11.6406 97.26C12.7112 98.1107 13.3052 99.3207 13.4226 100.89H10.3646C10.2766 100.127 9.9539 99.5407 9.39656 99.13C8.8539 98.7193 8.16456 98.514 7.32856 98.514C6.46323 98.514 5.7739 98.6827 5.26056 99.02C4.74723 99.3573 4.49056 99.8047 4.49056 100.362C4.49056 100.963 4.7399 101.403 5.23856 101.682C5.7519 101.961 6.64656 102.239 7.92256 102.518C8.68523 102.679 9.30856 102.833 9.79256 102.98C10.2766 103.112 10.7972 103.31 11.3546 103.574C11.9266 103.823 12.3666 104.102 12.6746 104.41C12.9972 104.718 13.2612 105.129 13.4666 105.642C13.6866 106.141 13.7966 106.72 13.7966 107.38C13.7966 108.935 13.2319 110.152 12.1026 111.032C10.9732 111.912 9.49923 112.352 7.68056 112.352ZM15.9038 112V96.27H18.8958V112H15.9038ZM28.3717 112C28.225 111.809 28.1077 111.391 28.0197 110.746H27.9757C27.653 111.23 27.2423 111.604 26.7437 111.868C26.245 112.132 25.5483 112.264 24.6537 112.264C23.4657 112.264 22.5123 111.963 21.7937 111.362C21.075 110.761 20.7157 109.91 20.7157 108.81C20.7157 107.666 21.1117 106.83 21.9037 106.302C22.6957 105.759 23.8103 105.385 25.2477 105.18C26.3037 105.033 27.0223 104.887 27.4037 104.74C27.785 104.579 27.9757 104.3 27.9757 103.904C27.9757 103.493 27.8143 103.171 27.4917 102.936C27.169 102.687 26.6997 102.562 26.0837 102.562C24.7197 102.562 23.9937 103.09 23.9057 104.146H21.2437C21.2877 103.075 21.7203 102.188 22.5417 101.484C23.363 100.78 24.551 100.428 26.1057 100.428C29.2737 100.428 30.8577 101.814 30.8577 104.586V110.328C30.8577 111.179 30.9897 111.699 31.2537 111.89V112H28.3717ZM25.3797 110.174C26.201 110.174 26.8463 109.961 27.3157 109.536C27.7997 109.111 28.0417 108.605 28.0417 108.018V106.324C27.719 106.515 27.0223 106.735 25.9517 106.984C25.101 107.175 24.4997 107.395 24.1477 107.644C23.7957 107.879 23.6197 108.245 23.6197 108.744C23.6197 109.697 24.2063 110.174 25.3797 110.174ZM37.7358 112.33C36.1225 112.33 34.8611 111.978 33.9518 111.274C33.0425 110.555 32.5438 109.58 32.4558 108.348H35.2278C35.4185 109.595 36.2398 110.218 37.6918 110.218C38.3518 110.218 38.8578 110.101 39.2098 109.866C39.5765 109.631 39.7598 109.316 39.7598 108.92C39.7598 108.773 39.7305 108.641 39.6718 108.524C39.6278 108.407 39.5398 108.304 39.4078 108.216C39.2905 108.113 39.1805 108.033 39.0778 107.974C38.9898 107.915 38.8285 107.857 38.5938 107.798C38.3591 107.739 38.1758 107.695 38.0438 107.666C37.9265 107.637 37.7138 107.6 37.4058 107.556C37.1125 107.497 36.9071 107.453 36.7898 107.424C36.1738 107.307 35.6678 107.189 35.2718 107.072C34.8905 106.94 34.4871 106.757 34.0618 106.522C33.6365 106.273 33.3138 105.943 33.0938 105.532C32.8885 105.107 32.7858 104.601 32.7858 104.014C32.7858 102.841 33.2111 101.946 34.0618 101.33C34.9271 100.714 36.0345 100.406 37.3838 100.406C38.8358 100.406 39.9725 100.743 40.7938 101.418C41.6298 102.078 42.1065 102.987 42.2238 104.146H39.5178C39.4005 103.046 38.6745 102.496 37.3398 102.496C36.7385 102.496 36.2618 102.606 35.9098 102.826C35.5725 103.046 35.4038 103.354 35.4038 103.75C35.4038 103.882 35.4258 104.007 35.4698 104.124C35.5285 104.227 35.6165 104.322 35.7338 104.41C35.8658 104.483 35.9905 104.549 36.1078 104.608C36.2251 104.652 36.3938 104.703 36.6138 104.762C36.8338 104.806 37.0245 104.85 37.1858 104.894C37.3471 104.923 37.5671 104.967 37.8458 105.026C38.1245 105.07 38.3445 105.107 38.5058 105.136C38.9751 105.239 39.3565 105.334 39.6498 105.422C39.9578 105.495 40.3098 105.627 40.7058 105.818C41.1018 105.994 41.4098 106.199 41.6298 106.434C41.8645 106.654 42.0625 106.962 42.2238 107.358C42.3998 107.739 42.4878 108.187 42.4878 108.7C42.4878 109.815 42.0478 110.702 41.1678 111.362C40.3025 112.007 39.1585 112.33 37.7358 112.33ZM47.2295 96.27V102.188H47.2955C47.7209 101.572 48.1829 101.125 48.6815 100.846C49.1949 100.553 49.8255 100.406 50.5735 100.406C51.7322 100.406 52.6709 100.802 53.3895 101.594C54.1082 102.371 54.4675 103.383 54.4675 104.63V112H51.4755V105.07C51.4755 104.454 51.2995 103.955 50.9475 103.574C50.6102 103.193 50.1335 103.002 49.5175 103.002C48.8575 103.002 48.3075 103.244 47.8675 103.728C47.4422 104.212 47.2295 104.835 47.2295 105.598V112H44.2375V96.27H47.2295ZM55.8369 102.694V100.714H57.3989V97.194H60.3249V100.714H62.2609V102.694H60.3249V108.678C60.3249 109.426 60.6989 109.8 61.4469 109.8L62.3269 109.778V111.978C61.8722 112.007 61.2489 112.022 60.4569 112.022C59.5916 112.022 58.8656 111.817 58.2789 111.406C57.6922 110.981 57.3989 110.284 57.3989 109.316V102.694H55.8369ZM71.415 112C71.2684 111.809 71.151 111.391 71.063 110.746H71.019C70.6964 111.23 70.2857 111.604 69.787 111.868C69.2884 112.132 68.5917 112.264 67.697 112.264C66.509 112.264 65.5557 111.963 64.837 111.362C64.1184 110.761 63.759 109.91 63.759 108.81C63.759 107.666 64.155 106.83 64.947 106.302C65.739 105.759 66.8537 105.385 68.291 105.18C69.347 105.033 70.0657 104.887 70.447 104.74C70.8284 104.579 71.019 104.3 71.019 103.904C71.019 103.493 70.8577 103.171 70.535 102.936C70.2124 102.687 69.743 102.562 69.127 102.562C67.763 102.562 67.037 103.09 66.949 104.146H64.287C64.331 103.075 64.7637 102.188 65.585 101.484C66.4064 100.78 67.5944 100.428 69.149 100.428C72.317 100.428 73.901 101.814 73.901 104.586V110.328C73.901 111.179 74.033 111.699 74.297 111.89V112H71.415ZM68.423 110.174C69.2444 110.174 69.8897 109.961 70.359 109.536C70.843 109.111 71.085 108.605 71.085 108.018V106.324C70.7624 106.515 70.0657 106.735 68.995 106.984C68.1444 107.175 67.543 107.395 67.191 107.644C66.839 107.879 66.663 108.245 66.663 108.744C66.663 109.697 67.2497 110.174 68.423 110.174ZM81.1752 115.85C79.6498 115.85 78.4252 115.542 77.5012 114.926C76.5918 114.31 76.0565 113.445 75.8952 112.33H78.8652C79.1585 113.166 79.9138 113.584 81.1312 113.584C82.8032 113.584 83.6392 112.799 83.6392 111.23V109.998H83.5732C82.7958 110.878 81.8132 111.318 80.6252 111.318C79.2905 111.318 78.1245 110.827 77.1272 109.844C76.1445 108.861 75.6532 107.556 75.6532 105.928C75.6532 104.256 76.1078 102.921 77.0172 101.924C77.9265 100.912 79.0998 100.406 80.5372 100.406C81.9012 100.406 82.9425 100.905 83.6612 101.902H83.7052V100.714H86.5872V111.142C86.5872 112.609 86.1398 113.753 85.2452 114.574C84.3358 115.425 82.9792 115.85 81.1752 115.85ZM81.1312 108.92C82.0258 108.92 82.6932 108.634 83.1332 108.062C83.5732 107.49 83.7932 106.757 83.7932 105.862C83.7932 104.982 83.5585 104.256 83.0892 103.684C82.6345 103.097 81.9745 102.804 81.1092 102.804C80.3465 102.804 79.7305 103.083 79.2612 103.64C78.8065 104.197 78.5792 104.945 78.5792 105.884C78.5792 106.837 78.8065 107.585 79.2612 108.128C79.7305 108.656 80.3538 108.92 81.1312 108.92ZM93.4897 112.33C91.8764 112.33 90.615 111.978 89.7057 111.274C88.7964 110.555 88.2977 109.58 88.2097 108.348H90.9817C91.1724 109.595 91.9937 110.218 93.4457 110.218C94.1057 110.218 94.6117 110.101 94.9637 109.866C95.3304 109.631 95.5137 109.316 95.5137 108.92C95.5137 108.773 95.4844 108.641 95.4257 108.524C95.3817 108.407 95.2937 108.304 95.1617 108.216C95.0444 108.113 94.9344 108.033 94.8317 107.974C94.7437 107.915 94.5824 107.857 94.3477 107.798C94.113 107.739 93.9297 107.695 93.7977 107.666C93.6804 107.637 93.4677 107.6 93.1597 107.556C92.8664 107.497 92.661 107.453 92.5437 107.424C91.9277 107.307 91.4217 107.189 91.0257 107.072C90.6444 106.94 90.241 106.757 89.8157 106.522C89.3904 106.273 89.0677 105.943 88.8477 105.532C88.6424 105.107 88.5397 104.601 88.5397 104.014C88.5397 102.841 88.965 101.946 89.8157 101.33C90.681 100.714 91.7884 100.406 93.1377 100.406C94.5897 100.406 95.7264 100.743 96.5477 101.418C97.3837 102.078 97.8604 102.987 97.9777 104.146H95.2717C95.1544 103.046 94.4284 102.496 93.0937 102.496C92.4924 102.496 92.0157 102.606 91.6637 102.826C91.3264 103.046 91.1577 103.354 91.1577 103.75C91.1577 103.882 91.1797 104.007 91.2237 104.124C91.2824 104.227 91.3704 104.322 91.4877 104.41C91.6197 104.483 91.7444 104.549 91.8617 104.608C91.979 104.652 92.1477 104.703 92.3677 104.762C92.5877 104.806 92.7784 104.85 92.9397 104.894C93.101 104.923 93.321 104.967 93.5997 105.026C93.8784 105.07 94.0984 105.107 94.2597 105.136C94.729 105.239 95.1104 105.334 95.4037 105.422C95.7117 105.495 96.0637 105.627 96.4597 105.818C96.8557 105.994 97.1637 106.199 97.3837 106.434C97.6184 106.654 97.8164 106.962 97.9777 107.358C98.1537 107.739 98.2417 108.187 98.2417 108.7C98.2417 109.815 97.8017 110.702 96.9217 111.362C96.0564 112.007 94.9124 112.33 93.4897 112.33Z" fill="white"/>
<path fill-rule="evenodd" clip-rule="evenodd" d="M39.8723 23.829H49.6788L41.1798 55.0766H31.3733L39.8723 23.829ZM64.1924 23.829L55.6935 55.0766H45.8869L54.3859 23.829H64.1924Z" fill="#FF5C00"/>
<path fill-rule="evenodd" clip-rule="evenodd" d="M52.0344 0.230015C73.8703 2.4342 89.6914 21.8829 87.4686 43.6655C85.1151 65.3184 65.502 81.007 43.6662 78.8028C21.6996 76.469 5.87839 57.0203 8.23196 35.3674C10.4548 13.5848 30.0678 -2.10383 52.0344 0.230015ZM51.1191 8.39848C33.8597 6.58326 18.3 19.1601 16.4694 36.1453C14.6389 53.2602 27.322 68.6895 44.4507 70.5047C61.7102 72.3199 77.2698 59.8728 79.1004 42.7579C80.9309 25.643 68.3786 10.2137 51.1191 8.39848Z" fill="#FF5C00"/>
</svg>

